<svg width="48" height="47" viewBox="0 0 48 47" fill="none" xmlns="http://www.w3.org/2000/svg">
<path fill-rule="evenodd" clip-rule="evenodd" d="M7.6665 23.548C7.6665 32.578 14.9698 39.8813 23.9998 39.8813C29.1565 39.8813 33.7298 37.5013 36.7165 33.768L42.7832 37.338C38.5365 43.1246 31.6998 46.8813 23.9765 46.8813C11.0965 46.8813 0.666504 36.428 0.666504 23.548C0.666504 11.438 9.85984 1.49797 21.6665 0.331299V7.4013C13.7565 8.54463 7.6665 15.3113 7.6665 23.548ZM26.333 7.4013V0.331299C38.1163 1.49797 47.333 11.4613 47.333 23.548C47.333 26.9313 46.5863 30.1513 45.2797 33.0446L39.213 29.4746C39.913 27.6313 40.333 25.648 40.333 23.548C40.333 15.3113 34.243 8.54463 26.333 7.4013Z" fill="white"/>
</svg>
