<svg width="48" height="56" viewBox="0 0 48 56" fill="none" xmlns="http://www.w3.org/2000/svg">
<path fill-rule="evenodd" clip-rule="evenodd" d="M26.8149 0V8.95417C38.3357 10.3833 47.2316 20.1833 47.2316 32.0833C47.2316 43.9833 38.3357 53.7833 26.8149 55.2125V49.3208C35.0982 47.9208 41.3982 40.7458 41.3982 32.0833C41.3982 23.4208 35.0982 16.2458 26.8149 14.8458V26.25L13.5441 13.2708L26.8149 0ZM5.52321 17.8208L9.63571 21.9625C8.08988 24.15 7.06904 26.6291 6.66071 29.1666H0.769043C1.26488 25.1125 2.89821 21.2041 5.52321 17.8208ZM0.769043 35H6.66071C7.06904 37.5667 8.08988 40.0167 9.60654 42.2042L5.49404 46.3458C2.86904 42.9625 1.26488 39.0542 0.769043 35ZM9.6066 50.5167C12.9899 53.1417 16.9274 54.7167 20.9816 55.2125V49.2917C18.4441 48.8542 15.9941 47.8625 13.8066 46.2875L9.6066 50.5167Z" fill="white"/>
</svg>
